# xmcd CD database file
# Copyright (C) 1996 Ti Kan
#
# Track frame offsets:
# 	150
# 	15862
# 	30235
# 	41247
# 	52970
# 	66462
# 	78577
# 	92617
# 	109995
# 	123572
# 	135850
#
# Disc length: 2900 seconds
#
# Revision: 1
# Processed by: cddbd v1.4b41PL1 Copyright (c) Steve Scherf et al.
# Submitted via: DiscPlay 3.4.1
#
DISCID=860b520b
DTITLE=Teflon Cowchip Band - Bullfoonery
DYEAR=1900
DGENRE=
TTITLE0=JJ Got Run Over By A John Deer
TTITLE1=Any Woman of Mine
TTITLE2=Frankenstein
TTITLE3=Fever Blister
TTITLE4=Cheese And Macaroni
TTITLE5=C-H-R-I-S-T-Y
TTITLE6=Girls Do It All The Time
TTITLE7=Bigger Than A Buick Regal
TTITLE8=Time Marches On
TTITLE9=Homless
TTITLE10=Paddle My Bum, Dust on His Bottom, Any Woman Of mine at Christmas Time
EXTD=
EXTT0=
EXTT1=
EXTT2=
EXTT3=
EXTT4=
EXTT5=
EXTT6=
EXTT7=
EXTT8=
EXTT9=
EXTT10=
PLAYORDER=
